<svg data-name="Слой 1" xmlns="http://www.w3.org/2000/svg" viewBox="0 0 53 53.382"><g opacity=".7"><rect x=".5" y=".5" width="52" height="52.382" rx="4" ry="4" fill="#333" stroke="#fff" stroke-miterlimit="10"/><g fill="#fff"><path d="M14.278 35.728c-.039-.194.5-.322 1.517-1.282a4.928 4.928 0 00.784-.855 5.245 5.245 0 00.63-2.189.424.424 0 00-.026-.155.817.817 0 00-.278-.4c-.362-.3-.663-.677-1.008-1 0 0-.072-.068-.617-.622a11.383 11.383 0 01-2.211-3.781c-.729-2.473.456-5.5 2.005-7.407 2.979-3.664 7.806-3.728 9.8-3.755a12.929 12.929 0 013.857.492 10.886 10.886 0 015.682 3.807 8.012 8.012 0 01.592 9.557 10.156 10.156 0 01-5.2 4.116 13.835 13.835 0 01-4.474.932 8.7 8.7 0 01-2.288-.155.41.41 0 00-.334-.052c-.054.024-.081.062-.154.155s-.16.186-.231.285a6.856 6.856 0 01-3.111 2.02c-2.302.815-4.853.699-4.935.289z"/><path d="M39.14 38.945c-.062.211-.833.157-1.118.136a6.931 6.931 0 01-3.818-1.152c-.9-.644-1.135-1.215-2.063-1.392a3.344 3.344 0 00-1.022 0 11.751 11.751 0 01-3.355-.291c-1.492-.284-3.235-.925-3.181-1.224s1.652.128 3.818-.291a12.188 12.188 0 005.134-2.477 9.22 9.22 0 004.294-6.165c.322-1.737-.035-2.774.231-2.862.335-.11 1.231 1.417 1.7 2.914a7.3 7.3 0 01.386 2.6 7.7 7.7 0 01-2.613 5.332c-.012.009-.125.1-.267.227a2.181 2.181 0 00-.514.6 1.414 1.414 0 00-.154.447 1.56 1.56 0 00.18.919 5.76 5.76 0 001 1.483c.771.794 1.42.997 1.362 1.196z"/></g></g></svg>