<svg width="558" height="131" fill="none" xmlns="http://www.w3.org/2000/svg"><path d="M.847 65.143l31.658-5.35L9.765 38.39l24.523 5.35-11.593-27.198 25.861 19.173-2.229-29.428 15.606 24.078L77.539 2.273l1.783 26.307 16.944-16.052-6.688 27.199 29.428-13.822-18.727 25.415 30.766 1.783-28.983 18.282 26.307 10.7h-27.644l12.484 29.875-25.86-17.39 3.12 33.887-18.28-22.294-7.58 21.403-7.135-21.849-17.39 21.849 4.905-32.104-28.982 13.822 19.619-24.969L4.86 88.33 27.6 74.953.847 65.143z" fill="#FC0"/><path d="M90.781 129.172L72.277 106.61l-7.669 21.626-7.179-22.072-17.656 22.161 4.949-32.505-29.473 14.045 19.886-25.281-31.3 4.102L27.11 74.997 0 65.054l32.059-5.395L9.05 37.989l24.88 5.44-11.726-27.556 26.129 19.352-2.274-29.83L61.933 29.92 77.717 1.47l1.784 26.575 17.166-16.23-6.777 27.466 29.785-14-18.995 25.771 31.033 1.784-29.16 18.504 26.976 10.969h-28.448l12.663 30.231-26.128-17.524 3.165 34.155zm-18.637-23.453l18.058 22.026-3.077-33.62 25.638 17.256-12.306-29.517h26.842L101.661 71.43l28.759-18.147-30.498-1.784 18.46-25.058L89.31 40.085l6.555-26.887-16.721 15.873L77.36 3.032 61.977 30.81 46.64 7.134l2.185 29.027-25.594-18.95 11.46 26.842-24.167-5.261 22.472 21.134L1.74 65.233l26.396 9.676L5.93 87.972l30.231-3.923-19.351 24.657 28.492-13.6-4.86 31.703 17.121-21.536 7.045 21.625 7.536-21.179z" fill="#B59100"/><path d="M66.971 99.833c18.47 0 33.441-14.972 33.441-33.441 0-18.47-14.972-33.441-33.44-33.441-18.47 0-33.442 14.972-33.442 33.44 0 18.47 14.972 33.442 33.441 33.442z" fill="#fff"/><path d="M67.06 98.138c17.608 0 31.881-14.273 31.881-31.88s-14.273-31.88-31.88-31.88-31.88 14.273-31.88 31.88 14.273 31.88 31.88 31.88z" fill="url(#paint0_linear)"/><path d="M66.971 99.833c-18.46 0-33.44-14.982-33.44-33.441 0-18.46 14.98-33.441 33.44-33.441 18.46 0 33.441 14.981 33.441 33.44 0 18.46-15.026 33.442-33.44 33.442zm0-66.436c-18.192 0-32.995 14.803-32.995 32.995 0 18.192 14.803 32.995 32.995 32.995 18.192 0 32.996-14.803 32.996-32.995 0-18.192-14.804-32.995-32.996-32.995z" fill="#A88300"/><path d="M40.53 55.334c1.829-4.191 6.154-5.797 8.918-4.459 2.765 1.338 3.122 5.172 3.122 5.35-.09-.445-.714-3.299-3.122-4.458-2.72-1.338-6.732-.045-8.917 3.567zm36.117 1.783c1.828-4.19 6.153-5.796 8.918-4.459 2.764 1.338 3.12 5.173 3.12 5.351-.088-.446-.713-3.3-3.12-4.459-2.72-1.337-6.733-.044-8.918 3.567zm-9.81-6.687c-7.178 2.14-11.058 7.312-10.255 11.146.134.58.669 2.586 3.612 4.37.044 0 .089.044.178.09 0 0 .178.044.312.088.223 0 2.72 0 6.153-.044 0 .223.045.535 0 .891-.089 1.115-.535 1.74-.446 1.784.134.09 1.07-.892 1.338-2.23a4.414 4.414 0 000-1.337h-7.134c-2.319-1.16-2.898-2.497-3.121-3.121-1.026-3.344 2.452-8.428 9.363-11.638z" fill="#000"/><path d="M48.986 61.108c.38-2.682-.597-5.038-2.182-5.263-1.584-.224-3.177 1.768-3.557 4.45-.38 2.682.597 5.038 2.182 5.263 1.585.224 3.177-1.768 3.557-4.45z" fill="#231F20"/><path d="M45.658 65.767h-.268c-1.694-.223-2.764-2.72-2.363-5.528.401-2.81 2.096-4.86 3.79-4.638 1.695.223 2.765 2.72 2.363 5.53-.356 2.63-1.917 4.636-3.522 4.636zm.892-9.72c-1.383 0-2.765 1.828-3.077 4.28-.357 2.542.535 4.816 2.007 4.995 1.471.222 2.942-1.695 3.3-4.281.356-2.541-.536-4.816-2.007-4.994h-.223z" fill="#000"/><path d="M46.303 59.62c.28-.944.125-1.823-.347-1.963-.472-.14-1.082.512-1.362 1.456-.28.945-.125 1.824.347 1.964.472.14 1.082-.512 1.362-1.456z" fill="#fff"/><path d="M85.102 63.338c.38-2.682-.597-5.038-2.182-5.263-1.585-.224-3.177 1.768-3.557 4.45-.38 2.682.597 5.038 2.182 5.262 1.585.225 3.177-1.767 3.557-4.45z" fill="#231F20"/><path d="M81.775 67.997h-.268c-1.694-.223-2.764-2.72-2.363-5.53.401-2.808 2.096-4.86 3.79-4.636 1.694.223 2.764 2.72 2.363 5.529-.357 2.63-1.917 4.637-3.522 4.637zm.891-9.72c-1.382 0-2.764 1.828-3.076 4.28-.357 2.542.535 4.816 2.006 4.994 1.472.223 2.943-1.694 3.3-4.28.356-2.542-.535-4.816-2.007-4.994h-.223z" fill="#000"/><path d="M82.422 61.85c.28-.944.124-1.823-.348-1.963-.472-.14-1.082.512-1.362 1.457-.28.944-.125 1.823.347 1.963.473.14 1.083-.512 1.363-1.456z" fill="#fff"/><path d="M87.794 74.06a14.06 14.06 0 01-1.784-4.012c.313 1.204.58 2.363.892 3.567-5.44 1.026-12.038 1.784-19.618 1.784-8.383 0-15.606-1.026-21.403-2.23l1.338-3.567a12.062 12.062 0 01-2.23 3.567 12.005 12.005 0 01-3.567 2.675c1.338-.58 2.676-1.203 4.013-1.783 3.523 9.72 12.93 15.918 22.74 15.16 8.517-.624 16.052-6.42 19.173-14.714.357.401.803.891 1.338 1.337.624.535 1.248.981 1.783 1.338a15.56 15.56 0 01-2.675-3.121zM66.838 87.884c-8.74.134-16.72-5.172-20.065-13.376a95.36 95.36 0 0018.727 2.23c8.07.178 15.026-.714 20.51-1.784-3.299 7.713-10.834 12.796-19.172 12.93z" fill="#000"/><path d="M195.742 34.556c-1.204-3.3-3.255-8.962-8.918-13.198a23.029 23.029 0 00-9.452-4.192c-2.185-.445-7.892-1.426-13.867 1.605-4.191 2.14-6.644 5.351-7.803 7.18V6.018a8.44 8.44 0 00-2.14-3.611 8.48 8.48 0 00-4.415-2.319h-9.006V56.27c0 .401.044 1.026.133 1.74 0 .222.535 4.815 2.542 8.828 3.745 7.357 11.637 10.612 13.198 11.236 4.013 1.65 7.357 1.962 10.032 2.185 2.72.222 7.447.624 13.109-1.07 1.739-.536 5.529-1.65 9.007-4.326 9.453-7.357 9.631-21.09 9.72-26.574-.044-3.032-.044-7.892-2.14-13.733zm-26.976 32.683c-7.312 0-13.198-8.249-13.198-18.37 0-10.122 5.93-18.37 13.198-18.37 7.313 0 13.198 8.248 13.198 18.37 0 10.121-5.885 18.37-13.198 18.37zm32.594 12.217V.045h9.408c.758.178 2.943.713 4.682 2.675 1.115 1.248 1.561 2.586 1.784 3.344v73.392H201.36zm19.975-61.264V58.99c.09 1.739.446 4.236 1.561 7.09 0 0 1.204 3.12 3.3 5.751 4.325 5.574 14.089 8.695 23.052 8.338 4.681-.178 14.446-.58 20.51-8.338 3.835-4.86 4.37-10.389 4.459-13.02v-40.62h-9.141c-.668.09-2.497.491-4.102 2.007-1.783 1.695-2.185 3.746-2.318 4.37V58.99c-.981 5.128-5.395 8.873-10.568 9.007-5.306.089-9.987-3.701-11.013-9.007V18.192h-15.74zM333.43 52.57v-9.186c-.089-1.962-.357-4.815-1.427-8.026-.802-2.407-2.853-8.56-8.828-13.153-4.058-3.121-8.071-4.102-10.791-4.771-7.312-1.694-13.153-.357-14.624 0-2.274.58-6.064 1.56-9.944 4.592-4.592 3.612-6.599 7.937-7.446 9.72-.267.58-1.115 2.498-1.873 5.708-2.14 9.185-.713 16.944-.356 18.772 1.025 5.083 2.006 10.121 6.198 15.07 4.637 5.485 10.299 7.402 12.306 8.07.892.313 12.128 3.79 23.097-2.184.445-.223 6.063-3.344 9.363-8.204.669-.936 2.051-3.21 3.21-6.242.312-.848.58-1.561.714-2.051-4.816-.045-9.676-.09-14.491-.09-4.95 6.6-13.511 8.16-19.084 4.593-3.924-2.542-6.064-7.446-5.752-12.619h39.728zm-27.377-22.562c6.242.267 11.459 5.752 11.236 12.395h-23.542c-.134-7 5.707-12.663 12.306-12.395z" fill="#39AAE3"/><path d="M393.847 46.06c-.178-3.835-.401-8.07-2.542-13.154-1.114-2.63-3.076-7.312-7.847-11.058-5.484-4.28-11.37-4.726-15.294-4.994-3.834-.312-10.3-.178-17.211 3.032-3.522 1.65-8.427 3.969-11.147 8.74-2.14 3.79-3.166 9.586-3.21 9.898-.089.49-.134.937-.179 1.204v62.067h8.651c.624-.089 2.898-.446 4.726-2.408a7.829 7.829 0 002.006-4.37V71.386c.981 1.471 2.631 3.656 5.262 5.529 8.828 6.242 19.351 2.586 19.975 2.363 4.102-1.516 6.689-3.88 7.892-5.039 4.682-4.414 6.287-9.452 7.357-12.841 1.962-6.42 1.739-11.682 1.561-15.339zm-28.893 20.956c-7.313 0-13.198-8.204-13.198-18.326 0-10.121 5.93-18.325 13.198-18.325 7.268 0 13.198 8.204 13.198 18.325 0 10.122-5.886 18.326-13.198 18.326zm47.754 12.262h-16.052V45.703c.089-2.096.669-11.638 8.472-19.307 8.427-8.338 18.95-8.204 20.823-8.16h5.216v16.141h-8.159c-1.204.223-3.656.848-5.93 2.81-3.344 2.853-4.147 6.599-4.325 7.713-.045 11.46-.045 22.919-.045 34.378zm22.874 0V18.192h9.943c.713.134 2.318.49 3.879 1.783 1.873 1.606 2.408 3.657 2.541 4.325v54.978h-16.363zm0-66.748V.044h9.051c.713.044 2.72.356 4.593 1.917 1.917 1.605 2.496 3.612 2.675 4.325v6.242h-16.319zm20.51 66.748V37.945c.223-2.676.981-7.268 4.102-11.593 7.001-9.676 19.619-9.676 22.651-9.676 1.561 0 17.434.223 23.855 11.013 2.452 4.102 2.541 8.115 2.631 11.638.222 14.402.312 27.6.222 39.862-3.21.044-6.42.089-9.631.178-.758-.178-2.586-.669-4.235-2.319-1.427-1.471-1.918-3.12-2.141-3.834v-36.25c-1.739-4.504-6.108-7.447-10.835-7.268-4.503.133-8.471 3.032-10.121 7.268v42.358h-16.498v-.044zM513.834.045v69.111c-.045.624-.268 4.325 2.586 7.313 2.185 2.274 4.86 2.72 5.707 2.809h16.899V67.462h-6.51a3.938 3.938 0 01-2.051-1.338 4.334 4.334 0 01-.936-2.185V28.982h4.191c.625-.133 2.23-.535 3.567-2.006 1.739-1.873 1.784-4.147 1.784-4.682V18.46h-9.453V7.223a7.912 7.912 0 00-1.516-4.191C526.408.758 524.045.178 523.42 0c-3.255.045-6.42.045-9.586.045zM372.935 117.311v-5.707h21.536v4.548c-.401 1.739-1.426 5.306-4.369 8.695-3.478 3.968-7.669 5.395-9.364 5.885-.981.179-2.185.268-3.522.268-1.293 0-2.453-.134-3.389-.268-1.694-.356-5.841-1.426-9.497-5.038-3.701-3.656-4.771-7.847-5.128-9.453-.178-.936-.267-2.051-.267-3.299 0-1.115.133-2.096.267-2.943.268-1.65 1.204-5.841 4.771-9.586 4.058-4.28 8.918-5.262 10.478-5.485a27.03 27.03 0 012.809-.134c.847 0 1.65.045 2.363.134 1.472.179 5.128.803 8.561 3.656a16.577 16.577 0 014.816 6.689h-8.472c-.357-.535-1.025-1.427-2.14-2.141-1.293-.847-2.497-1.07-3.255-1.248-.892-.178-1.65-.178-2.096-.178-1.025 0-1.872.089-2.497.178-1.025.267-4.28 1.293-6.465 4.28-1.204 1.695-1.65 3.345-1.873 4.37a13.245 13.245 0 00-.267 2.586c0 .847.134 1.605.267 2.23.313 1.07 1.026 3.21 2.988 5.216 2.318 2.364 4.949 3.122 6.019 3.344.58.09 1.204.134 1.873.134.58 0 1.204-.044 1.873-.134a12.362 12.362 0 004.994-3.031c1.248-1.249 1.961-2.587 2.363-3.478-4.459-.09-8.918-.09-13.377-.09zm144.778 0v-5.707h21.536v4.548c-.401 1.739-1.427 5.306-4.369 8.695-3.478 3.968-7.67 5.395-9.364 5.885-.981.179-2.185.268-3.522.268-1.294 0-2.453-.134-3.389-.268-1.694-.356-5.841-1.426-9.497-5.038-3.701-3.656-4.771-7.847-5.128-9.453-.178-.936-.268-2.051-.268-3.299 0-1.115.134-2.096.268-2.943.268-1.65 1.204-5.841 4.771-9.586 4.057-4.28 8.918-5.262 10.478-5.485a27.03 27.03 0 012.809-.134c.847 0 1.65.045 2.363.134 1.472.179 5.128.803 8.561 3.656a16.577 16.577 0 014.816 6.689h-8.472c-.357-.535-1.025-1.427-2.14-2.141-1.293-.847-2.497-1.07-3.255-1.248-.892-.178-1.65-.178-2.096-.178-1.025 0-1.873.089-2.497.178-1.025.267-4.28 1.293-6.465 4.28-1.204 1.695-1.65 3.345-1.873 4.37a13.245 13.245 0 00-.267 2.586c0 .847.134 1.605.267 2.23.312 1.07 1.026 3.21 2.988 5.216 2.318 2.364 4.949 3.122 6.019 3.344.535.09 1.204.134 1.873.134.579 0 1.204-.044 1.872-.134a12.349 12.349 0 004.994-3.031c1.249-1.249 1.962-2.587 2.364-3.478-4.459-.09-8.918-.09-13.377-.09zM410.791 95.463h-5.886l-13.376 34.244h6.911l2.586-6.822h12.841l3.032 6.822h6.912l-13.02-34.244zm-7.313 20.868l4.192-11.058 4.191 11.058h-8.383zm28.849 13.822h-6.688v-34.69h9.14l8.606 24.97 8.784-24.97h8.784v34.244h-6.466v-24.39l-8.472 24.836h-5.083l-8.605-24.836v24.836zm38.791-34.69h-6.688v34.244h6.688V95.463zm3.344 0v34.244h6.689v-22.249l14.312 22.695h6.198v-34.69h-6.643v21.759l-14.09-21.759h-6.466zm68.221.669V86.59h-2.23v-1.382h5.618v1.382h-2.274v9.542h-1.114zm4.28 0V85.208h1.873l3.567 9.274 3.79-9.274h1.56v10.924h-1.204v-9.14l-4.191 9.452-4.28-9.497v9.185h-1.115z" fill="#fff"/><defs><linearGradient id="paint0_linear" x1="35.318" y1="69.037" x2="98.84" y2="63.479" gradientUnits="userSpaceOnUse"><stop stop-color="#FFFDEB"/><stop offset="1" stop-color="#FFF3A0"/></linearGradient></defs></svg>