<svg width="218" height="35" fill="none" xmlns="http://www.w3.org/2000/svg"><path d="M16.165 5.64H0v23.193h3.505V19.61h12.631c3.044 0 4.861-1.59 4.861-4.253V9.922c0-2.722-1.763-4.281-4.832-4.281zM3.505 8.828h11.33c2.284 0 2.657.329 2.657 2.34v3.238c0 1.612-.23 2.021-2.339 2.021H3.505v-7.6zM27.18 5.64h-3.505v23.193h22.846v-3.186H27.18V5.64zm64.595 0l-8.217 10.014L75.373 5.64h-4.397l10.845 13.127v10.066h3.505V18.767L96.2 5.64h-4.425zm23.122 0H99.41c-2.12 0-3.27.47-3.27 2.952v6.793c0 2.483 1.15 2.952 3.27 2.952h15.252v7.31H99.334v-2.77l-3.476-.005v3.01c0 2.458 1.229 2.951 3.213 2.951h15.826c2.201 0 3.27-.965 3.27-2.952v-7.776c0-2.235-.795-2.952-3.27-2.952H99.645V8.827h15.017v2.602l3.505.003v-2.84c0-2.26-.764-2.952-3.27-2.952zm24.648 0h-16.363c-2.12 0-3.27.47-3.27 2.952v17.29c0 2.458 1.251 2.951 3.27 2.951h16.334c2.219 0 3.299-.965 3.299-2.952V8.592c0-2.26-.764-2.952-3.27-2.952zm-.235 3.187v16.82h-15.896V8.826h15.896zm24.877-3.187v17.787L147.976 5.716l-.068-.076h-2.796v23.193h3.505V11.565l15.776 17.193.071.075h3.228V5.64h-3.505zm-96.364 0H51.46c-2.12 0-3.27.47-3.27 2.952V28.93h3.505v-7.928H67.59v7.928h3.505V8.592c-.003-2.26-.767-2.952-3.273-2.952zm-.234 12.397H51.691v-9.21h15.896v9.21z" fill="#000"/><path d="M180.939 11.523V0l12.267 5.781-12.267 5.742z" fill="#EB088C"/><path d="M180.939 23.047V11.523l12.266 5.782-12.266 5.742z" fill="#EC2027"/><path d="M180.939 34.57V23.047l12.266 5.78-12.266 5.743z" fill="#FBB041"/><path d="M193.206 17.284V5.76l12.266 5.783-12.266 5.74z" fill="#00AEEF"/><path d="M193.206 28.81V17.284l12.266 5.784-12.266 5.742z" fill="#00B5A5"/><path d="M205.472 23.047V11.523l12.267 5.782-12.267 5.742z" fill="#FFE600"/></svg>