<svg width="224" height="117" fill="none" xmlns="http://www.w3.org/2000/svg"><path d="M.008 116.367v-14.601h9.126v1.824h1.828v5.475H9.134v1.823H3.655v5.479H.008zm7.299-9.126v-1.828H3.655v1.828h3.652zm7.303 9.126v-1.824h-1.824v-10.954h1.823v-1.824h7.303v1.824h1.828v10.954h-1.828v1.824h-7.303zm5.474-3.648v-7.306h-3.651v7.306h3.651zm7.303 3.648v-1.824h-1.824v-10.954h1.824v-1.824h7.302v1.824h1.828v3.651h-3.651v-1.827h-3.652v7.306h3.652v-1.827h3.651v3.655h-1.828v1.824l-7.302-.004zm10.953-.004v-14.602h3.648v5.475h3.651v-5.475h3.652v5.475h-1.828v3.648h1.828v5.479H45.64v-5.479h-3.652v5.479h-3.647zm12.783 0v-14.602h10.954v3.648H54.77v1.827h5.479v3.648h-5.48v1.828h7.308v3.647l-10.954.004zm16.424 0v-10.954H63.9v-3.648h10.954v3.648h-3.651v10.954h-3.656zm14.602-.004v-1.824h-1.824v-10.954h1.824v-1.823h7.302v3.647h-5.478v7.307h3.655v-1.828h-1.824v-3.647h5.475v7.302h-1.828v1.824l-7.302-.004zm10.954 0v-12.778h1.823v-1.823h7.303v1.823h1.828v12.778h-3.652v-3.647H96.75v3.647h-3.647zm7.302-7.303v-3.651H96.75v3.651h3.655zm5.475 7.303v-14.601h1.824v1.823h1.824v1.824h1.827v1.828h1.824v-1.828h1.824v-1.824h1.827v-1.823h1.824v14.601h-3.651v-5.479h-1.824v1.828h-1.824v-1.828h-1.827v5.479h-3.648zm14.606-.004v-14.602h10.954v3.648h-7.307v1.827h5.479v3.648h-5.479v1.827h7.307v3.648l-10.954.004zm12.778 0v-3.647h7.302v-1.828h-5.479v-1.824h-1.823v-5.475h1.823v-1.823h9.131v3.647h-7.307v1.828h5.479v1.823h1.828v5.479h-1.828v1.824l-9.126-.004zm16.424 0v-3.647h7.303v-1.828h-5.479v-1.824h-1.824v-5.475h1.824v-1.823h9.13v3.647h-7.306v1.828h5.479v1.823h1.827v5.479h-1.827v1.824l-9.127-.004zm14.602-.004v-1.824h-1.824v-10.954h1.824v-1.823h7.302v1.823h1.828v10.954h-1.828v1.824h-7.302zm5.478-3.648v-7.306h-3.655v7.306h3.655zm5.48 3.648V101.75h10.954v3.647h-7.307v1.828h5.479v3.647h-5.479v5.479h-3.647zm16.425 0v-10.954h-3.648v-3.647h10.954v3.647h-3.651v10.954h-3.655z" fill="#fff"/><path d="M81.272 0h-7.939v7.943h7.94V0z" fill="#FF6E00"/><path d="M7.943 9.17H0v7.939h7.943v-7.94z" fill="#6414E6"/><path d="M17.109 82.499h-7.94v7.943h7.94v-7.943z" fill="#19BEE6"/><path d="M62.941 64.163h-7.943v7.944h7.943v-7.944z" fill="#E619DC"/><path fill-rule="evenodd" clip-rule="evenodd" d="M26.275 0h-7.94v7.943h7.94V0zm-9.166 0h-7.94v7.943h7.94V0zM27.5 7.943h7.943V0H27.5v7.943zM44.61 0h-7.94v7.943h7.94V0zm9.165 0h-7.939v7.943h7.94V0zm18.332 0h-7.94v7.943h7.94V0zM9.166 17.113h7.943V9.166H9.166v7.947zM0 26.275h7.943v-7.94H0v7.94zm9.166.004h7.943v-7.944H9.166v7.944zM0 35.444h7.943v-7.943H0v7.943zm9.166 0h7.943v-7.943H9.166v7.943zM0 44.61h7.943v-7.94H0v7.94zm9.166 0h7.943v-7.944H9.166v7.944zM0 53.775h7.943v-7.939H0v7.94zm9.166 0h7.943v-7.943H9.166v7.943zM0 62.941h7.943v-7.943H0v7.943zm9.166 0h7.943v-7.943H9.166v7.943zM0 72.107h7.943v-7.94H0v7.94zm9.166.004h7.943v-7.944H9.166v7.944zm9.165-9.17h7.944v-7.943H18.33v7.943zm0 9.17h7.944v-7.944H18.33v7.944zm9.17-9.17h7.943v-7.943h-7.943v7.943zm0 9.17h7.943v-7.944h-7.943v7.944zm9.165-9.17h7.944v-7.943h-7.944v7.943zm0 9.17h7.944v-7.944h-7.944v7.944zm9.166-9.17h7.943v-7.943h-7.943v7.943zm0 9.17h7.943v-7.944h-7.943v7.944zm18.331-9.17h7.944v-7.943h-7.944v7.943zM0 81.272h7.943v-7.939H0v7.94zm0 9.17h7.943v-7.943H0v7.943zm9.166-9.166h7.943v-7.943H9.166v7.943zm9.165-64.163h7.944V9.166H18.33v7.947zm9.17 0h7.943V9.166h-7.943v7.947zm9.165 0h7.944V9.166h-7.944v7.947zm9.166 0h7.943V9.166h-7.943v7.947zm9.166-9.17h7.943V0h-7.943v7.943zm0 54.998h7.943v-7.943h-7.943v7.943zm0-45.828h7.943V9.166h-7.943v7.947zm9.165 0h7.944V9.166h-7.944v7.947zm9.17-.004h7.943V9.166h-7.943v7.943zm-9.17 9.17h7.944V18.33h-7.944v7.948zm9.17 0h7.943V18.33h-7.943v7.948zm9.166-7.948v7.944h7.943V18.33h-7.943zm-9.166 17.113h7.943v-7.947h-7.943v7.947zm9.166 0h7.943v-7.947h-7.943v7.947zm-9.166 9.166h7.943v-7.944h-7.943v7.944zm9.166 0h7.943v-7.944h-7.943v7.944zm-9.166 9.165h7.943v-7.943h-7.943v7.943zm0 9.166h7.943v-7.943h-7.943v7.943zm-9.17-9.166h7.944v-7.943h-7.944v7.943zm18.336 0h7.943v-7.943h-7.943v7.943zm26.031-18.331h7.944v-7.943h-7.944v7.943zm0 9.166h7.944v-7.944h-7.944v7.944zm0 9.165h7.944v-7.943h-7.944v7.943zm0 9.17h7.944v-7.943h-7.944v7.943zm0 9.166h7.944v-7.944h-7.944v7.944zm9.166-45.833h7.943v-7.943h-7.943v7.944zm0-9.165h7.943V9.166h-7.943v7.947zm9.166 9.166h7.943V18.33h-7.943v7.948zm0-9.166h7.943V9.166h-7.943v7.947zm17.112-7.947h-7.943v7.943h7.943V9.166zm-7.943-1.223h7.943V0h-7.943v7.943zm9.166 9.166h7.943V9.166h-7.943v7.943zm0-9.166h7.943V0h-7.943v7.943zm9.165 9.166h7.944V9.166h-7.944v7.943zM162.306 0h-7.94v7.943h7.94V0zm9.165 9.166h-7.943v7.943h7.943V9.166zm-7.943-1.223h7.943V0h-7.943v7.943zm-45.832 27.501h7.943v-7.947h-7.943v7.947zm0 9.166h7.943v-7.944h-7.943v7.944zm0 9.165h7.943v-7.943h-7.943v7.943zm36.666-9.165h7.944v-7.944h-7.944v7.944zm0 9.165h7.944v-7.943h-7.944v7.943zm17.109-17.108h-7.943v7.943h7.943v-7.944zm0 9.165h-7.943v7.943h7.943v-7.943zm1.227-1.222h7.943v-7.944h-7.943v7.944zm0 9.165h7.943v-7.943h-7.943v7.943zm0 18.336h7.943v-7.944h-7.943v7.944zm9.165-27.501h7.944v-7.944h-7.944v7.944zm0 9.165h7.944v-7.943h-7.944v7.943zm-9.165-36.662h7.943V9.166h-7.943v7.947zm0 9.166h7.943V18.33h-7.943v7.948zm9.165-9.166h7.944V9.166h-7.944v7.947zm0 9.166h7.944V18.33h-7.944v7.948zM117.696 62.94h7.943v-7.943h-7.943v7.943zm0 9.17h7.943v-7.944h-7.943v7.944zm9.166 0h7.943v-7.944h-7.943v7.944zm0 9.165h7.943v-7.943h-7.943v7.943zm.003 9.166h7.94v-7.943h-7.94v7.943zm17.109-17.109h-7.943v7.943h7.943v-7.943zm-7.943 17.109h7.943v-7.943h-7.943v7.943zm9.166-9.166h7.943v-7.943h-7.943v7.943zm0 9.166h7.943v-7.943h-7.943v7.943zm9.165-9.166h7.944v-7.943h-7.944v7.943zm.004 9.166h7.94v-7.943h-7.94v7.943zm17.105-17.109h-7.943v7.943h7.943v-7.943zm-7.943 17.109h7.943v-7.943h-7.943v7.943zm9.17-9.166h7.943v-7.943h-7.943v7.943zm9.165 0h7.944v-7.943h-7.944v7.943zm0-18.331h7.944v-7.943h-7.944v7.943zm0 9.166h7.944v-7.944h-7.944v7.944zm9.166-26.279v7.94h7.943v-7.94h-7.943zm0 17.11h7.943v-7.944h-7.943v7.943z" fill="#fff"/><path d="M116.473 18.335h-7.943v7.944h7.943v-7.944z" fill="#E61973"/><path d="M134.804 0h-7.939v7.943h7.939V0z" fill="#FFB919"/><path d="M125.639 73.33h-7.944v7.942h7.944V73.33z" fill="#1987E6"/><path d="M180.637 82.499h-7.944v7.943h7.944v-7.943z" fill="#FF4B00"/><path d="M198.972 36.666h-7.944v7.94h7.944v-7.94z" fill="#14E691"/><path d="M198.972 64.168h-7.944v7.939h7.944v-7.94z" fill="#FF1928"/><path d="M210.192 110.88v-7.735h-2.303v-1.384h5.966v1.384h-2.252v7.735h-1.411zm4.894 0v-9.119h1.536l2.972 5.865 2.869-5.865H224v9.119h-1.407v-6.226l-2.17 4.457h-1.584l-2.346-4.634v6.403h-1.407z" fill="#fff"/></svg>