<svg width="209" height="39" fill="none" xmlns="http://www.w3.org/2000/svg"><path fill-rule="evenodd" clip-rule="evenodd" d="M202.779 21.246l5.81 9.41-6.623.006-5.479-8.836h-.06v8.836h-5.969V7.75h8.911a8.962 8.962 0 015.8 1.7 6.415 6.415 0 012.191 5.3 6.979 6.979 0 01-1.325 4.264 4.711 4.711 0 01-3.256 2.232zm-1.98-7.586a2.348 2.348 0 00-.946-.885 4.208 4.208 0 00-1.309-.41 10.434 10.434 0 00-1.538-.107h-.578v5.728h.578c.515.003 1.029-.032 1.538-.106a4.208 4.208 0 001.309-.41c.393-.2.721-.506.946-.885a3.246 3.246 0 000-2.925zm-27.086-5.91h13.06v5.074h-7.068v3.689h7.068v5.227h-7.068v3.689h7.068v5.227h-13.06V7.75zm-86.346 5.074H80.3v3.689h7.068v5.227H80.3v3.689h7.068v5.227h-13.06V7.75h13.06v5.074zm-22.14 17.838l-5.48-8.836h-.06v8.836h-5.969V7.75h8.912a8.967 8.967 0 015.8 1.7 6.41 6.41 0 012.191 5.3 6.986 6.986 0 01-1.325 4.264 5.624 5.624 0 01-3.7 2.224l6.254 9.41-6.624.014zm-1.17-17a2.346 2.346 0 00-.946-.885 4.193 4.193 0 00-1.308-.41 10.455 10.455 0 00-1.539-.106h-.577v5.727h.577a10.4 10.4 0 001.54-.106 4.188 4.188 0 001.307-.41c.393-.199.721-.506.946-.885a3.244 3.244 0 000-2.925zm38.981-5.043a10.6 10.6 0 013.458 2.444 11.403 11.403 0 012.32 3.678 12.366 12.366 0 01-.013 8.932 11.425 11.425 0 01-2.337 3.66 10.8 10.8 0 01-3.458 2.445c-1.3.585-2.71.886-4.136.883h-7.819V7.75h7.82a10.238 10.238 0 014.165.865v.003zm-6.47 4.177v12.82h1.237a7.197 7.197 0 002.362-.378 5.243 5.243 0 003.261-3.19 7.774 7.774 0 00.479-2.84 6.45 6.45 0 00-1.658-4.71 5.85 5.85 0 00-4.39-1.7l-1.29-.002zm37.967 0h-4.932v17.865h-5.964V12.796h-4.933V7.752h15.829v5.044zm9.608 17.87h-5.97V7.686h5.97v22.98zm6.805-19.75a10.289 10.289 0 013.665-2.35 13.065 13.065 0 014.67-.813 10.81 10.81 0 015.781 1.51 9.881 9.881 0 013.809 4.5l-5.246 2.221a5.484 5.484 0 00-1.779-2.505 4.476 4.476 0 00-2.819-.912 4.803 4.803 0 00-2.341.57 5.171 5.171 0 00-1.75 1.553 7.45 7.45 0 00-1.072 2.192 8.498 8.498 0 000 4.93c.235.783.602 1.52 1.086 2.179a5.193 5.193 0 001.778 1.524 5.04 5.04 0 002.382.554 4.773 4.773 0 003.074-.967 3.825 3.825 0 001.382-2.765h-4.511v-4.385h10.969a25.697 25.697 0 01-.464 4.728 9.998 9.998 0 01-1.708 3.761 9.453 9.453 0 01-3.776 3.177 11.8 11.8 0 01-4.992 1.04c-1.56.016-3.11-.26-4.569-.812a10.45 10.45 0 01-3.61-2.323 10.22 10.22 0 01-2.342-3.6 12.544 12.544 0 01-.818-4.6c-.02-1.614.262-3.218.831-4.728a10.587 10.587 0 012.37-3.682v.002z" fill="#F6F6F6"/><path fill-rule="evenodd" clip-rule="evenodd" d="M28.944 12.757c-.02.624.03 1.322-.945 1.64-.577.19-1.285-.6-1.323-1.15a2.462 2.462 0 011.134-.838c.906-.342 1.121-.407 1.134.348zm-16.732 1.64c-.974-.32-.924-1.016-.945-1.64.013-.755.227-.69 1.134-.347a2.46 2.46 0 011.134.839c-.039.553-.747 1.339-1.324 1.15l.001-.001zM34.275 32.65a5.625 5.625 0 001.6-1.14c2.273-2.427 2.715-5.223 2.987-8.46.072-.842.056-1.692.1-2.557.006-.133.027-.733.088-.732.179.196.32.422.419.669.278.754.455 1.541.526 2.342.26 1.573.306 3.175.134 4.762a4.339 4.339 0 01-.54 1.567c-1.42 2.38-2.992 4.587-4.493 6.929-.124.193-.215-.178-.3-.241l-.12-.121c-.34-.184-.473-.206-.637-.094-.053.1-.1.2-.15.3a47.72 47.72 0 01-1.427 2.824.258.258 0 01-.43.03.259.259 0 01-.054-.158c0-.893.006-1.786-.006-2.68-.007-.556.006-1.236-.766-1.235-.753 0-.776.658-.785 1.229-.008.52 0 1.043 0 1.643a.26.26 0 01-.4.224 8.202 8.202 0 00-2.077-1.136 3.88 3.88 0 00-3.635.4l.162-.147a3.799 3.799 0 013.364-.9c.328.07.665.098 1 .08a.259.259 0 00.228-.348c-.466-1.24-1.921-5.78 1.072-7.322a.265.265 0 00.145-.2c.105-.834 1.625-4.44-2.506-6.791-.648.576-1.447 1.92-2.466 2.782 1.8.387 2.75-.7 3.621-1.45-.357 2.1-1.991 2.25-3.294 3.014 1.121-.482 2.238.172 3.571-.532-.964 1.846-2.873.935-4.046 1.909 1.125.727 2.164.33 3.195.218a2.55 2.55 0 01.875.033 5.727 5.727 0 01-.839.964 4.009 4.009 0 01-1.333.66 2.75 2.75 0 01-1.513.04c-1.474-.46-2.92-1.01-4.359-1.575a1.07 1.07 0 01-.57-.68c-.09-.468.018-.97-.027-1.451a1.131 1.131 0 01.9-1.32 6.278 6.278 0 003.377-2.325c.278-.405.479-.858.59-1.336v-.027a3.664 3.664 0 00-.227-1.293 1.81 1.81 0 01.025-1l.025-.107v-.015h.006l.293-1.26c.097-.39.332-.731.66-.963l.088-.054a.736.736 0 01.112-.074 9.987 9.987 0 011.721-.705 7.42 7.42 0 004.367-4.71 4.374 4.374 0 00.18-2.23c-.2.408-.51 1.224-.7 1.635a1.51 1.51 0 01-1.586.993c-1.915.014-3.76.337-4.808 2.333a4.9 4.9 0 01-2.284 2.475 4.77 4.77 0 01.261-1.705c-.89-.366-.539-.884-.064-1.4.647-.7 1.3-1.392 1.987-2.123a3.383 3.383 0 01-1.538-.854h3.744c0-.038.006-.075.01-.113a10.63 10.63 0 01-3.265-1.17c1.74-1.072 5.354-.54 5.964-.734.008-.145-.5-.253-1.019-.422-1.2-.31-1.65-.407-2.848-.731A15.376 15.376 0 0123.148 4.7h4.916a14.636 14.636 0 00-5.424-1.8 29.52 29.52 0 00-2.522-.056l-.005-.315v.315a29.514 29.514 0 00-2.521.056c-1.91.237-3.753.849-5.426 1.8h4.916a15.37 15.37 0 01-3.413 1.383c-1.2.323-1.648.42-2.847.73-.52.17-1.026.278-1.019.423.61.2 4.225-.337 5.964.735-1.016.565-2.12.96-3.264 1.169 0 .038.006.075.01.113h3.744c-.428.415-.957.71-1.536.854.685.73 1.34 1.423 1.986 2.123.475.514.826 1.032-.064 1.4.19.547.28 1.125.262 1.705a4.9 4.9 0 01-2.285-2.475c-1.047-2-2.893-2.32-4.808-2.333a1.51 1.51 0 01-1.585-.993c-.19-.411-.5-1.226-.7-1.634a4.364 4.364 0 00.18 2.229 7.417 7.417 0 004.368 4.71c.593.18 1.169.417 1.72.705a.74.74 0 01.111.074c.03.017.06.034.09.054.327.232.561.574.659.964l.293 1.259h.004v.015l.025.107c.102.324.11.67.024 1a3.675 3.675 0 00-.227 1.32c.112.478.313.931.592 1.336a6.271 6.271 0 003.375 2.326 1.13 1.13 0 01.9 1.319c-.044.48.064.983-.026 1.45a1.072 1.072 0 01-.57.68c-1.439.567-2.887 1.116-4.36 1.577a2.75 2.75 0 01-1.513-.04 4.007 4.007 0 01-1.333-.66 5.71 5.71 0 01-.838-.964c.287-.062.583-.073.874-.033 1.032.112 2.07.509 3.2-.218-1.174-.974-3.082-.063-4.045-1.91 1.333.7 2.45.05 3.57.533-1.3-.763-2.938-.915-3.295-3.013.872.748 1.825 1.836 3.623 1.449-1.02-.861-1.819-2.206-2.468-2.782-4.13 2.352-2.612 5.958-2.506 6.79a.262.262 0 00.146.2c2.993 1.543 1.536 6.084 1.07 7.323a.262.262 0 00.113.314c.034.02.073.032.113.035.336.018.672-.01 1-.08a3.798 3.798 0 013.364.9l.163.147a3.879 3.879 0 00-3.634-.4 8.18 8.18 0 00-2.078 1.136.26.26 0 01-.4-.224v-1.643c-.009-.572-.032-1.227-.785-1.23-.772 0-.758.68-.766 1.237-.012.893-.009 1.786-.007 2.679a.259.259 0 01-.484.128 48.005 48.005 0 01-1.426-2.824c-.045-.1-.1-.2-.15-.3-.165-.113-.3-.091-.638.094l-.12.12c-.084.064-.176.435-.3.242-1.5-2.343-3.073-4.55-4.493-6.93a4.321 4.321 0 01-.54-1.566 17.557 17.557 0 01.134-4.762c.07-.801.248-1.589.527-2.342a2.2 2.2 0 01.417-.67c.061 0 .082.6.088.733.044.865.03 1.715.1 2.558.272 3.236.714 6.032 2.987 8.459a5.63 5.63 0 001.6 1.14.261.261 0 00.353-.203.26.26 0 00-.023-.151c-.693-1.411-1.44-2.8-2-4.263-.569-1.491-.95-3.056-1.387-4.6a.258.258 0 01.328-.318c.324.112.758.289 1.1.42a.26.26 0 00.341-.313c-.433-1.49-1.84-5.85-1.84-5.85.085.1.908 1.3.966 1.408a24.988 24.988 0 011.735 3.326c.235.608.427 1.047.531 1.277.047.1.065.219-.02.292-1.169.99-.224 2.878.271 3.466a7.215 7.215 0 011.442 2.822c.07.212.161.515.261.834a.258.258 0 00.5-.095c-.088-1.333-.323-3.142-.763-3.556-.678-.638-.535-2.837.225-3.23.707-.363.866-.75.51-1.371a.264.264 0 01.093-.363l3.252-1.861a.26.26 0 00-.087-.483 4.453 4.453 0 00-3.145.925 1.43 1.43 0 01-2.093-.8 3.95 3.95 0 01-.172-.507c-.038-.141.09-.26.23-.3 1.6-.4 1.84-.482 1.92-.967a.26.26 0 00-.254-.3 3.166 3.166 0 01-1.647-.2 2.093 2.093 0 01-.576-1.157.26.26 0 01.35-.311c.564.24.719.232 1.029-.006a.265.265 0 00.092-.286.266.266 0 00-.05-.093 1.523 1.523 0 00-.235-.24c-1.173-.914-2.975-5.968-2.915-7.46A3.4 3.4 0 003.26 9.652c-1.24-.506-2.185-.665-2.01-2.412l1.372.71s.072-.531-.664-1.146C.381 5.484.143 3.73.093 1.824A1.679 1.679 0 012.638.247c3.063 1.44 7.284 2.89 10.77 2.443l.113-.024.011-.006-.008.005a34.002 34.002 0 016.59-.7h.018c2.214.018 4.421.252 6.59.7l-.009-.005.01.006.115.024c3.484.447 7.7-1 10.768-2.443a1.679 1.679 0 012.547 1.579c-.05 1.906-.289 3.66-1.868 4.979-.736.615-.663 1.146-.663 1.146l1.372-.71c.176 1.747-.77 1.906-2.008 2.412a3.399 3.399 0 00-1.017-1.515c.06 1.492-1.742 6.546-2.915 7.46a1.622 1.622 0 00-.236.24.263.263 0 00-.027.3c.017.03.04.058.068.08.31.238.463.246 1.03.006a.259.259 0 01.348.31 2.1 2.1 0 01-.575 1.158 3.169 3.169 0 01-1.648.2.26.26 0 00-.254.3c.08.485.316.566 1.92.967.14.035.267.155.23.3a3.938 3.938 0 01-.172.507 1.43 1.43 0 01-2.094.8 4.452 4.452 0 00-3.145-.925.26.26 0 00-.086.483l3.252 1.86a.266.266 0 01.095.364c-.358.622-.2 1.009.507 1.372.761.39.9 2.59.226 3.229-.44.414-.675 2.224-.764 3.556a.258.258 0 00.5.095c.1-.32.191-.621.261-.834.267-1.036.759-2 1.442-2.822.5-.588 1.441-2.476.273-3.466a.236.236 0 01-.022-.292c.1-.23.3-.67.531-1.277a25.17 25.17 0 011.736-3.326c.058-.111.881-1.311.965-1.407 0 0-1.406 4.359-1.839 5.849a.259.259 0 00.34.314c.342-.132.776-.31 1.1-.421a.257.257 0 01.328.318c-.437 1.542-.817 3.107-1.387 4.6-.56 1.462-1.308 2.852-2 4.263a.259.259 0 00.33.355l-.012-.004zM12.902 21.134l-.143.073a1.92 1.92 0 00.144-.073zM7.032 2.09c.271.066.531.127.781.182a5.604 5.604 0 00-.78-.182zm-.34.372C3.08 2.18 3.748 4.843 4.448 6.425l.583.965a.483.483 0 01.083.13c0 .009.008.018.011.027.9 2.123 1.648 6.638 5.98 8.369a6.258 6.258 0 01-.495-.32 12.147 12.147 0 01-3.006-3.82c-1.934-3.891-1.427-6.331-1.662-7.3.374.13 1.7.414 1.96.506.025-.06-2.327-1.08-3-1.434.298-.186.633-.307.98-.353 1.527-.158 2.1.326 3.088.467a5.946 5.946 0 001.971-.154l-4.25-1.045zm20.615 18.672c.043.025.092.049.143.073l-.143-.073zm5.09-18.861c.25-.056.51-.117.782-.182a5.586 5.586 0 00-.782.18v.002zm2.686 5.275c0-.01.008-.018.012-.027a.471.471 0 01.084-.13l.581-.965c.7-1.582 1.37-4.245-2.24-3.962l-4.255 1.043c.644.16 1.31.213 1.971.154.988-.142 1.562-.625 3.088-.467.348.046.683.167.98.353-.67.354-3.023 1.374-3 1.434.263-.091 1.587-.376 1.96-.506-.236.974.271 3.413-1.663 7.3a12.14 12.14 0 01-3.006 3.82 5.923 5.923 0 01-.495.32c4.335-1.734 5.083-6.244 5.983-8.368zM20.095 21.374c-.519 0-1.08 0-1.8-.013a4.752 4.752 0 01-1.907-.368 1.049 1.049 0 01-.43-1.052c.037-.545.746-.93.746-.93-.026 1.275 1.08 1.617 3.39 1.637h.02c2.31-.021 3.415-.362 3.39-1.637 0 0 .707.385.744.93a1.049 1.049 0 01-.43 1.052 4.748 4.748 0 01-1.908.368 68.84 68.84 0 01-1.8.013l-.01-.057-.005.057zm.01 13.659c.068 1.682-2.822 1.827-5.263.365-.138-.52.13-1.415-.153-1.611-.42-.291-1.09.093-1.515.363-.424.27-.7.789-1.116 1.113.18-2.6 2.772-4.958 6.757-5.18.437-.024.88-.053 1.291-.051.411.002.854.027 1.291.05 3.984.222 6.578 2.583 6.758 5.18-.42-.323-.69-.841-1.117-1.112-.426-.271-1.095-.653-1.515-.363-.283.2-.016 1.09-.153 1.61-2.443 1.463-5.333 1.318-5.265-.364z" fill="#D71920"/></svg>