<svg width="138" height="142" fill="none" xmlns="http://www.w3.org/2000/svg"><path fill-rule="evenodd" clip-rule="evenodd" d="M108.968 79.964l-26.008.678-.938 28.248-1.402 16.723-22.66-.226v-16.043l-1.872-28.026-27.177 1.13-.936-27.12L68 55.103l41.435-1.13.702 3.618-1.17 22.373zm19.849 16.808l4.489-30.278-18.784-37.997-12.76 4.22L85.108 15.48 55.688 0l-6.44 22.96-4.545-12.055-22.598 21.312-12.64 21.327-.56 22.097L0 71.55l6.07 35.403 13.767 22.799 32.482 10.747 26.604.935 45.876-16.186L138 93.734l-9.183 3.038z" fill="#0A0A08"/></svg>