<svg width="279" height="32" fill="none" xmlns="http://www.w3.org/2000/svg"><path d="M30.507.304L1.206 0a1.217 1.217 0 00-.861 2.065l29.432 29.59a1.216 1.216 0 002.065-.867l-.137-29.292A1.217 1.217 0 0030.507.304zm5.599 0L65.401 0a1.217 1.217 0 01.867 2.065l-29.429 29.59a1.216 1.216 0 01-2.065-.867l.137-29.292A1.216 1.216 0 0136.106.304zm34.547 0L99.946 0a1.214 1.214 0 011.193 1.442 1.212 1.212 0 01-.324.623l-29.431 29.59a1.216 1.216 0 01-2.066-.867l.137-29.292A1.217 1.217 0 0170.653.304zm72.082-.121h-6.21v18.644l-6.457-13.285h-4.264l-6.457 13.285V.183h-6.211V31.61h6.211l8.589-17.671 8.589 17.67h6.21V.184zm20.223 0h-7.065l-10.22 31.427h6.691l2.023-6.21h10.085l2.023 6.21h6.691L162.958.183zm-6.871 19.976l3.346-10.25 3.345 10.25h-6.691zM241.244.183h-6.74L224.27 31.61h6.691l2.023-6.21h9.76l2.022 6.21h6.691L241.244.183zm-6.545 19.976l3.175-9.751 3.173 9.75h-6.348zM278.194.183h-6.213v20.882L260.652.183h-6.211V31.61h6.211V10.727l11.329 20.883h6.213V.182zm-96.841 26.189L195.422 5.42V.183h-20.77V5.42h14.07l-14.07 20.952v5.238h20.77v-5.238h-14.069zm31.028 5.238c5.56 0 10.11-4.642 10.11-10.201V10.505c0-5.56-4.562-10.322-10.11-10.322H199.72V31.61h12.661zm4.866-11.466a5.94 5.94 0 01-5.924 5.924h-5.393V5.846h5.396a5.942 5.942 0 015.925 5.925l-.004 8.372z" fill="#000"/></svg>